<svg xmlns="http://www.w3.org/2000/svg" width="20" height="21" viewBox="0 0 20 21" fill="none">
  <path d="M7.99231 0.109805C8.27129 0.064565 8.57666 0.0268654 8.67091 0.0193255C8.76516 0.0117856 9.16477 0.00424566 9.55685 0.000475702C9.99039 -0.00329426 10.4616 0.0155555 10.7444 0.0494852C11.0045 0.0796449 11.3099 0.121114 11.423 0.143734C11.5361 0.166354 11.7321 0.211593 11.8565 0.237983C11.9809 0.268143 12.2448 0.343542 12.4409 0.400091C12.6369 0.460411 12.9687 0.57351 13.176 0.652679C13.3834 0.728078 13.749 0.893956 13.9865 1.01459C14.2241 1.13523 14.5634 1.32373 14.7405 1.43306C14.9177 1.54239 15.2306 1.76105 15.438 1.91562C15.6453 2.07018 16.0223 2.40194 16.2787 2.65076C16.535 2.89957 16.8593 3.23887 16.9987 3.40475C17.1382 3.57063 17.338 3.82321 17.4398 3.97024C17.5454 4.11727 17.7377 4.41133 17.8696 4.62999C18.0016 4.84864 18.1901 5.19548 18.2881 5.40283C18.3823 5.61018 18.5331 5.9834 18.6198 6.23222C18.7065 6.48104 18.8196 6.84672 18.8686 7.04276C18.9177 7.2388 18.978 7.5027 19.0006 7.6271C19.0232 7.75151 19.0647 8.05688 19.0948 8.3057C19.1288 8.56205 19.1514 9.09362 19.1514 9.53093C19.1514 9.97579 19.1288 10.4885 19.0986 10.7373C19.0685 10.9748 19.0081 11.3405 18.9667 11.5479C18.9252 11.7552 18.846 12.0757 18.7932 12.2642C18.7405 12.4527 18.6274 12.7919 18.5444 13.0181C18.4615 13.2443 18.2768 13.6703 18.1335 13.9606C17.9902 14.2509 17.7791 14.6392 17.6585 14.8277C17.5416 15.0162 17.3041 15.3555 17.1345 15.5817C16.9648 15.8079 16.6406 16.1887 16.4144 16.4262C16.1882 16.6637 15.8414 16.9917 15.6453 17.1576C15.4493 17.3197 15.0572 17.61 14.7782 17.7947C14.4993 17.9832 14.0318 18.2509 13.7415 18.3903C13.4512 18.5336 13.0441 18.7108 12.8367 18.7862C12.6294 18.8616 12.2373 18.9822 11.9696 19.0501C11.702 19.1217 11.3023 19.2046 11.0837 19.2386C10.8462 19.2763 10.3561 19.3102 9.85844 19.3215C9.33065 19.3366 8.88579 19.3253 8.63321 19.2989C8.41455 19.2725 8.03378 19.2122 7.78497 19.1594C7.53615 19.1104 7.178 19.0237 6.99327 18.9709C6.80855 18.9181 6.59366 18.8729 6.52203 18.8729C6.42401 18.8691 6.19781 18.9671 5.67379 19.2386C5.28171 19.4422 4.82178 19.6797 4.6559 19.7664C4.49002 19.8531 4.0414 20.0868 3.65686 20.2866C3.27232 20.4827 2.8991 20.6561 2.82747 20.6712C2.74453 20.69 2.62766 20.6787 2.50702 20.6372C2.40146 20.6033 2.26575 20.5241 2.19789 20.4563C2.13003 20.3884 2.05086 20.2678 2.0207 20.1924C1.98677 20.1132 1.96038 20.0039 1.96038 19.9473C1.96038 19.887 1.99431 19.6646 2.03578 19.4459C2.07861 19.2389 2.13157 18.9475 2.16268 18.7762L2.16773 18.7485C2.19789 18.5826 2.29591 18.0397 2.39015 17.5421C2.4844 17.0445 2.56357 16.5958 2.56357 16.5431C2.56357 16.4903 2.54095 16.3659 2.51079 16.2603C2.46932 16.1246 2.3713 15.9776 2.16396 15.7325C2.00562 15.544 1.72287 15.1633 1.53814 14.8843C1.35342 14.6053 1.08575 14.1378 0.94626 13.8475C0.803001 13.5573 0.622043 13.1426 0.546644 12.9239C0.471245 12.7052 0.384536 12.4338 0.350606 12.3207C0.320447 12.2076 0.263897 11.9852 0.226198 11.8306C0.184728 11.676 0.120639 11.3104 0.0791691 11.0201C0.0188498 10.6205 0 10.3 0 9.70058C0 9.26327 0.0188498 8.71285 0.0414696 8.47534C0.0640893 8.23784 0.116869 7.86461 0.158338 7.64595C0.199808 7.4273 0.275207 7.088 0.327986 6.89196C0.380766 6.69592 0.478785 6.37925 0.546644 6.19452C0.610733 6.00979 0.742682 5.69311 0.833161 5.49708C0.92364 5.30104 1.07444 5.00321 1.16492 4.83733C1.25917 4.67146 1.42127 4.40002 1.52683 4.23414C1.63239 4.06826 1.86236 3.75536 2.03578 3.5367C2.2092 3.31804 2.5221 2.9712 2.72945 2.76009C2.94057 2.55274 3.25347 2.26622 3.43066 2.12673C3.60785 1.98347 3.96223 1.72712 4.22235 1.5537C4.48248 1.38405 4.9575 1.11638 5.27794 0.961815C5.59839 0.803477 6.06587 0.607439 6.31468 0.5245C6.5635 0.441561 6.92919 0.332232 7.12522 0.279453C7.32126 0.230443 7.71334 0.151274 7.99231 0.109805Z" fill="#4553F3"/>
  <path d="M8.6521 4.96573C8.77651 4.92049 8.9537 4.87148 9.04795 4.85263C9.14219 4.83755 9.40232 4.83001 9.63229 4.83755C9.93012 4.84509 10.1148 4.87148 10.292 4.9318C10.4278 4.97704 10.6539 5.07506 10.801 5.15046C10.9706 5.24094 11.1629 5.38797 11.3476 5.57269C11.5022 5.72726 11.6869 5.94969 11.7548 6.06279C11.8189 6.17589 11.9282 6.42471 11.9961 6.60943C12.1054 6.92234 12.1167 6.98643 12.1167 7.41997C12.1167 7.8309 12.1016 7.93269 12.0149 8.19282C11.9584 8.35869 11.8528 8.60374 11.7736 8.73946C11.6945 8.87141 11.5135 9.10515 11.3665 9.25217C11.2194 9.3992 11.0121 9.57262 10.9065 9.64048C10.7972 9.70457 10.7067 9.76112 10.7067 9.76866C10.7067 9.77243 10.7218 9.82898 10.7407 9.8893C10.7633 9.94962 10.8801 10.3605 11.0083 10.7941C11.1365 11.2276 11.3062 11.8082 11.3853 12.0759C11.4645 12.3435 11.6191 12.8638 11.7246 13.2257C11.8754 13.7309 11.9169 13.9194 11.898 14.0363C11.8867 14.1192 11.8415 14.2323 11.8 14.2926C11.7585 14.3492 11.6681 14.4246 11.604 14.4623C11.4909 14.5226 11.3137 14.5263 9.51919 14.5263C7.62667 14.5263 7.55504 14.5226 7.43063 14.4509C7.359 14.4095 7.26852 14.3341 7.23082 14.2813C7.18181 14.221 7.15543 14.123 7.15543 13.9986C7.15166 13.8628 7.25721 13.4519 7.53996 12.5094C7.75108 11.7931 7.98482 11.0127 8.05645 10.7752C8.12807 10.5377 8.21855 10.2248 8.26002 10.0778L8.26669 10.0525C8.30163 9.91973 8.33165 9.80569 8.33165 9.79505C8.33165 9.78374 8.24494 9.71211 8.13561 9.63294C8.02629 9.55754 7.86795 9.42936 7.78501 9.35019C7.70207 9.27479 7.57012 9.13531 7.49472 9.04106C7.41932 8.94681 7.29868 8.76208 7.22328 8.62636C7.15166 8.49064 7.05364 8.2456 7.01217 8.07972C6.96316 7.87991 6.93677 7.65748 6.93677 7.43128C6.93677 7.23902 6.96316 6.96758 6.99709 6.82809C7.02725 6.68483 7.11019 6.45486 7.18181 6.30784C7.24967 6.16081 7.37785 5.94969 7.46833 5.83659C7.55504 5.72349 7.72092 5.5463 7.83779 5.44829C7.95466 5.35027 8.13184 5.21832 8.2374 5.158C8.33919 5.09768 8.52769 5.01097 8.6521 4.96573Z" fill="white"/>
</svg>