<svg xmlns="http://www.w3.org/2000/svg" width="21" height="23" viewBox="0 0 21 23" fill="none">
  <path d="M8.99231 1.1098C9.27129 1.06457 9.57666 1.02687 9.67091 1.01933C9.76516 1.01179 10.1648 1.00425 10.5568 1.00048C10.9904 0.996706 11.4616 1.01556 11.7444 1.04949C12.0045 1.07964 12.3099 1.12111 12.423 1.14373C12.5361 1.16635 12.7321 1.21159 12.8565 1.23798C12.9809 1.26814 13.2448 1.34354 13.4409 1.40009C13.6369 1.46041 13.9687 1.57351 14.176 1.65268C14.3834 1.72808 14.749 1.89396 14.9865 2.01459C15.2241 2.13523 15.5634 2.32373 15.7405 2.43306C15.9177 2.54239 16.2306 2.76105 16.438 2.91562C16.6453 3.07018 17.0223 3.40194 17.2787 3.65076C17.535 3.89957 17.8593 4.23887 17.9987 4.40475C18.1382 4.57063 18.338 4.82321 18.4398 4.97024C18.5454 5.11727 18.7377 5.41133 18.8696 5.62999C19.0016 5.84864 19.1901 6.19548 19.2881 6.40283C19.3823 6.61018 19.5331 6.9834 19.6198 7.23222C19.7065 7.48104 19.8196 7.84672 19.8686 8.04276C19.9177 8.2388 19.978 8.5027 20.0006 8.6271C20.0232 8.75151 20.0647 9.05688 20.0948 9.3057C20.1288 9.56205 20.1514 10.0936 20.1514 10.5309C20.1514 10.9758 20.1288 11.4885 20.0986 11.7373C20.0685 11.9748 20.0081 12.3405 19.9667 12.5479C19.9252 12.7552 19.846 13.0757 19.7932 13.2642C19.7405 13.4527 19.6274 13.7919 19.5444 14.0181C19.4615 14.2443 19.2768 14.6703 19.1335 14.9606C18.9902 15.2509 18.7791 15.6392 18.6585 15.8277C18.5416 16.0162 18.3041 16.3555 18.1345 16.5817C17.9648 16.8079 17.6406 17.1887 17.4144 17.4262C17.1882 17.6637 16.8414 17.9917 16.6453 18.1576C16.4493 18.3197 16.0572 18.61 15.7782 18.7947C15.4993 18.9832 15.0318 19.2509 14.7415 19.3903C14.4512 19.5336 14.0441 19.7108 13.8367 19.7862C13.6294 19.8616 13.2373 19.9822 12.9696 20.0501C12.702 20.1217 12.3023 20.2046 12.0837 20.2386C11.8462 20.2763 11.3561 20.3102 10.8584 20.3215C10.3306 20.3366 9.88579 20.3253 9.63321 20.2989C9.41455 20.2725 9.03378 20.2122 8.78497 20.1594C8.53615 20.1104 8.178 20.0237 7.99327 19.9709C7.80855 19.9181 7.59366 19.8729 7.52203 19.8729C7.42401 19.8691 7.19781 19.9671 6.67379 20.2386C6.28171 20.4422 5.82178 20.6797 5.6559 20.7664C5.49002 20.8531 5.0414 21.0868 4.65686 21.2866C4.27232 21.4827 3.8991 21.6561 3.82747 21.6712C3.74453 21.69 3.62766 21.6787 3.50702 21.6372C3.40146 21.6033 3.26575 21.5241 3.19789 21.4563C3.13003 21.3884 3.05086 21.2678 3.0207 21.1924C2.98677 21.1132 2.96038 21.0039 2.96038 20.9473C2.96038 20.887 2.99431 20.6646 3.03578 20.4459C3.07861 20.2389 3.13157 19.9475 3.16268 19.7762L3.16773 19.7485C3.19789 19.5826 3.29591 19.0397 3.39015 18.5421C3.4844 18.0445 3.56357 17.5958 3.56357 17.5431C3.56357 17.4903 3.54095 17.3659 3.51079 17.2603C3.46932 17.1246 3.3713 16.9776 3.16396 16.7325C3.00562 16.544 2.72287 16.1633 2.53814 15.8843C2.35342 15.6053 2.08575 15.1378 1.94626 14.8475C1.803 14.5573 1.62204 14.1426 1.54664 13.9239C1.47124 13.7052 1.38454 13.4338 1.35061 13.3207C1.32045 13.2076 1.2639 12.9852 1.2262 12.8306C1.18473 12.676 1.12064 12.3104 1.07917 12.0201C1.01885 11.6205 1 11.3 1 10.7006C1 10.2633 1.01885 9.71285 1.04147 9.47534C1.06409 9.23784 1.11687 8.86461 1.15834 8.64595C1.19981 8.4273 1.27521 8.088 1.32799 7.89196C1.38077 7.69592 1.47878 7.37925 1.54664 7.19452C1.61073 7.00979 1.74268 6.69311 1.83316 6.49708C1.92364 6.30104 2.07444 6.00321 2.16492 5.83733C2.25917 5.67146 2.42127 5.40002 2.52683 5.23414C2.63239 5.06826 2.86236 4.75536 3.03578 4.5367C3.2092 4.31804 3.5221 3.9712 3.72945 3.76009C3.94057 3.55274 4.25347 3.26622 4.43066 3.12673C4.60785 2.98347 4.96223 2.72712 5.22235 2.5537C5.48248 2.38405 5.9575 2.11638 6.27794 1.96182C6.59839 1.80348 7.06587 1.60744 7.31468 1.5245C7.5635 1.44156 7.92919 1.33223 8.12522 1.27945C8.32126 1.23044 8.71334 1.15127 8.99231 1.1098Z" stroke="#75808A"/>
  <path d="M9.65211 5.96561C9.77652 5.92037 9.95371 5.87136 10.048 5.85251C10.1422 5.83743 10.4023 5.82989 10.6323 5.83743C10.9301 5.84497 11.1149 5.87136 11.292 5.93168C11.4278 5.97692 11.654 6.07494 11.801 6.15034C11.9706 6.24082 12.1629 6.38784 12.3476 6.57257C12.5022 6.72714 12.6869 6.94957 12.7548 7.06267C12.8189 7.17577 12.9282 7.42458 12.9961 7.60931C13.1054 7.92222 13.1167 7.98631 13.1167 8.41985C13.1167 8.83078 13.1016 8.93257 13.0149 9.19269C12.9584 9.35857 12.8528 9.60362 12.7736 9.73934C12.6945 9.87129 12.5135 10.105 12.3665 10.2521C12.2195 10.3991 12.0121 10.5725 11.9066 10.6404C11.7972 10.7044 11.7067 10.761 11.7067 10.7685C11.7067 10.7723 11.7218 10.8289 11.7407 10.8892C11.7633 10.9495 11.8802 11.3604 12.0083 11.794C12.1365 12.2275 12.3062 12.8081 12.3853 13.0758C12.4645 13.3434 12.6191 13.8637 12.7246 14.2256C12.8754 14.7308 12.9169 14.9193 12.8981 15.0361C12.8867 15.1191 12.8415 15.2322 12.8 15.2925C12.7586 15.349 12.6681 15.4244 12.604 15.4621C12.4909 15.5225 12.3137 15.5262 10.5192 15.5262C8.62669 15.5262 8.55506 15.5225 8.43065 15.4508C8.35902 15.4094 8.26854 15.334 8.23084 15.2812C8.18183 15.2209 8.15544 15.1228 8.15544 14.9984C8.15167 14.8627 8.25723 14.4518 8.53998 13.5093C8.75109 12.793 8.98483 12.0126 9.05646 11.7751C9.12809 11.5376 9.21857 11.2247 9.26004 11.0777L9.26671 11.0523C9.30165 10.9196 9.33167 10.8056 9.33167 10.7949C9.33167 10.7836 9.24496 10.712 9.13563 10.6328C9.0263 10.5574 8.86796 10.4292 8.78502 10.3501C8.70208 10.2747 8.57014 10.1352 8.49474 10.0409C8.41934 9.94669 8.2987 9.76196 8.2233 9.62624C8.15167 9.49052 8.05365 9.24547 8.01218 9.0796C7.96317 8.87979 7.93678 8.65736 7.93678 8.43116C7.93678 8.23889 7.96317 7.96746 7.9971 7.82797C8.02726 7.68471 8.1102 7.45474 8.18183 7.30771C8.24969 7.16069 8.37787 6.94957 8.46835 6.83647C8.55506 6.72337 8.72093 6.54618 8.8378 6.44816C8.95467 6.35015 9.13186 6.2182 9.23742 6.15788C9.33921 6.09756 9.52771 6.01085 9.65211 5.96561Z" fill="white" stroke="#75808A"/>
</svg>