<svg xmlns="http://www.w3.org/2000/svg" width="15" height="4" viewBox="0 0 15 4" fill="none">
<path d="M1.96317 0.490601C2.79661 0.490803 3.47195 1.16688 3.47195 2.00037C3.47175 2.83368 2.79648 3.50895 1.96317 3.50916C1.12968 3.50916 0.453602 2.83381 0.4534 2.00037C0.4534 1.16675 1.12955 0.490601 1.96317 0.490601ZM7.50027 0.490601C8.33376 0.490754 9.00906 1.16685 9.00906 2.00037C9.00886 2.83371 8.33363 3.509 7.50027 3.50916C6.66679 3.50916 5.99071 2.83381 5.99051 2.00037C5.99051 1.16675 6.66666 0.490601 7.50027 0.490601ZM13.0374 0.490601C13.8709 0.490705 14.5462 1.16682 14.5462 2.00037C14.546 2.83374 13.8708 3.50905 13.0374 3.50916C12.2039 3.50916 11.5278 2.83381 11.5276 2.00037C11.5276 1.16675 12.2038 0.490601 13.0374 0.490601Z" fill="#1F1F1F" stroke="white" stroke-width="0.5"/>
</svg>