<svg xmlns="http://www.w3.org/2000/svg" width="26" height="24" viewBox="0 0 26 24" fill="none">
<path d="M2 11.5C2 8.213 2 6.569 2.9988 5.462C3.1815 5.25965 3.38561 5.07409 3.6082 4.908C4.827 4 6.6332 4 10.25 4C13.8657 4 15.6741 4 16.8918 4.908C17.1144 5.07409 17.3185 5.25965 17.5012 5.462C18.5 6.57 18.5 8.212 18.5 11.5V12.5C18.5 15.787 18.5 17.431 17.5012 18.538C17.3185 18.7404 17.1144 18.9259 16.8918 19.092C15.673 20 13.8668 20 10.25 20C6.6343 20 4.8259 20 3.6082 19.092C3.38561 18.9259 3.1815 18.7404 2.9988 18.538C2 17.43 2 15.788 2 12.5V11.5ZM18.5 9.5L19.2238 9.171C21.3644 8.198 22.4358 7.711 23.2168 8.151C24 8.591 24 9.679 24 11.854V12.146C24 14.322 24 15.409 23.2179 15.849C22.4347 16.289 21.3644 15.802 19.2249 14.829L18.5 14.5V9.5Z" stroke="#1F1F1F" stroke-width="1.4"/>
</svg>