<svg xmlns="http://www.w3.org/2000/svg" width="24" height="24" viewBox="0 0 24 24" fill="none">
  <path d="M15.9581 14.8613L16.3898 14.4059L15.3576 13.4259L14.9259 13.8822L15.9581 14.8613ZM17.8119 14.2143L19.624 15.2588L20.3346 14.0245L18.5216 12.9809L17.8119 14.2143ZM19.974 17.4209L18.6269 18.8393L19.6581 19.8203L21.0053 18.4019L19.974 17.4209ZM17.8157 19.2947C16.4543 19.4284 12.9013 19.3146 9.04573 15.256L8.01447 16.235C12.2164 20.6589 16.2247 20.8828 17.9552 20.7111L17.8157 19.2947ZM9.04573 15.256C5.36849 11.3842 4.75183 8.1178 4.67498 6.68523L3.2538 6.76208C3.34867 8.51721 4.09246 12.1062 8.01447 16.235L9.04573 15.256ZM10.3512 8.95836L10.6225 8.67185L9.59125 7.69182L9.31897 7.97834L10.3512 8.95836ZM10.8369 5.10466L9.64058 3.41404L8.4784 4.23564L9.67379 5.9272L10.8369 5.10466ZM5.59049 3.04784L4.1029 4.61702L5.13511 5.59705L6.6246 4.02881L5.59049 3.04784ZM9.83507 8.46788C9.66433 8.30332 9.49197 8.14044 9.31802 7.97928L9.31612 7.98118L9.31327 7.98403L9.26584 8.03905C9.17294 8.16222 9.09936 8.29882 9.04763 8.44416C8.95466 8.70506 8.90532 9.05039 8.96794 9.48111C9.09127 10.3274 9.64627 11.4649 11.095 12.9914L12.1272 12.0104C10.7724 10.5845 10.4385 9.70691 10.3758 9.27429C10.3455 9.06557 10.3758 8.95647 10.3882 8.92136L10.3958 8.90334L10.3692 8.93844L10.3521 8.95742C10.3521 8.95742 10.3502 8.95742 9.83507 8.46788ZM11.095 12.9914C12.5399 14.5131 13.6309 15.1099 14.4629 15.2455C14.8908 15.3148 15.2371 15.2588 15.4989 15.1554C15.6442 15.0988 15.7791 15.0186 15.8983 14.9182L15.9325 14.886L15.9458 14.8727L15.9524 14.867L15.9553 14.8641L15.9562 14.8623C15.9562 14.8623 15.9581 14.8613 15.442 14.3708C14.9259 13.8813 14.9268 13.8803 14.9268 13.8794L14.9287 13.8784L14.9306 13.8756L14.9354 13.8708L14.9449 13.8614L14.98 13.831C14.9895 13.8259 14.9882 13.8262 14.9762 13.8319C14.9572 13.8395 14.8718 13.8699 14.6916 13.8405C14.3102 13.7779 13.4867 13.442 12.1272 12.0104L11.095 12.9914ZM9.64058 3.41404C8.67858 2.05358 6.75457 1.82304 5.59144 3.04879L6.62175 4.02881C7.11793 3.50702 7.99265 3.54781 8.4784 4.23564L9.64058 3.41404ZM4.67498 6.68523C4.65411 6.30574 4.82013 5.9272 5.13511 5.59705L4.1029 4.61702C3.59439 5.1521 3.20731 5.89495 3.2538 6.76208L4.67498 6.68523ZM18.6259 18.8402C18.3612 19.1192 18.0851 19.2681 17.8157 19.2947L17.9552 20.7111C18.6639 20.6419 19.2378 20.2633 19.6581 19.8203L18.6259 18.8402ZM10.6225 8.6728C11.5409 7.70605 11.6054 6.19379 10.8369 5.10561L9.67474 5.9272C10.0751 6.49359 10.0134 7.24782 9.59125 7.69182L10.6225 8.6728ZM19.624 15.2588C20.4029 15.7076 20.5556 16.81 19.974 17.4219L21.0053 18.4019C22.2434 17.0984 21.8829 14.9163 20.3346 14.0245L19.624 15.2588ZM16.3898 14.4069C16.755 14.0217 17.3252 13.9354 17.8119 14.2152L18.5216 12.9819C17.4789 12.3823 16.1877 12.555 15.3576 13.4278L16.3898 14.4069Z" fill="#1F1F1F"/>
</svg>