<svg width="37" height="37" viewBox="0 0 37 37" fill="none" xmlns="http://www.w3.org/2000/svg">
<rect width="37" height="37" rx="11.1" fill="url(#paint0_linear_134_1641)"/>
<path d="M16.9565 8.52763C17.2285 8.48353 17.5261 8.44678 17.618 8.43943C17.7099 8.43208 18.0994 8.42473 18.4816 8.42106C18.9042 8.41738 19.3636 8.43576 19.6392 8.46883C19.8928 8.49823 20.1905 8.53866 20.3007 8.5607C20.411 8.58275 20.6021 8.62685 20.7233 8.65258C20.8446 8.68198 21.1019 8.75548 21.293 8.8106C21.4841 8.8694 21.8075 8.97965 22.0096 9.05682C22.2117 9.13032 22.5682 9.29202 22.7997 9.40962C23.0312 9.52722 23.362 9.71096 23.5347 9.81754C23.7074 9.92411 24.0124 10.1373 24.2145 10.2879C24.4167 10.4386 24.7842 10.762 25.0341 11.0045C25.284 11.2471 25.6 11.5778 25.736 11.7395C25.8719 11.9012 26.0667 12.1475 26.1659 12.2908C26.2688 12.4341 26.4563 12.7207 26.5849 12.9339C26.7135 13.147 26.8973 13.4851 26.9928 13.6873C27.0847 13.8894 27.2317 14.2532 27.3162 14.4957C27.4007 14.7383 27.511 15.0948 27.5587 15.2859C27.6065 15.477 27.6653 15.7342 27.6874 15.8555C27.7094 15.9767 27.7498 16.2744 27.7792 16.517C27.8123 16.7669 27.8344 17.285 27.8344 17.7113C27.8344 18.145 27.8123 18.6448 27.7829 18.8873C27.7535 19.1188 27.6947 19.4753 27.6543 19.6774C27.6139 19.8795 27.5367 20.1919 27.4852 20.3757C27.4338 20.5594 27.3235 20.8902 27.2427 21.1107C27.1618 21.3311 26.9818 21.7464 26.8421 22.0294C26.7025 22.3124 26.4967 22.6909 26.3791 22.8746C26.2652 23.0584 26.0336 23.3891 25.8683 23.6096C25.7029 23.8301 25.3869 24.2013 25.1664 24.4328C24.9459 24.6643 24.6078 24.984 24.4167 25.1457C24.2256 25.3038 23.8434 25.5867 23.5714 25.7668C23.2995 25.9506 22.8438 26.2115 22.5608 26.3475C22.2778 26.4871 21.881 26.6598 21.6788 26.7333C21.4767 26.8068 21.0945 26.9244 20.8336 26.9906C20.5727 27.0604 20.1831 27.1412 19.97 27.1743C19.7385 27.2111 19.2607 27.2441 18.7756 27.2552C18.2611 27.2699 17.8275 27.2588 17.5813 27.2331C17.3681 27.2074 16.9969 27.1486 16.7544 27.0971C16.5119 27.0494 16.1627 26.9648 15.9827 26.9134C15.8026 26.8619 15.5931 26.8178 15.5233 26.8178C15.4277 26.8142 15.2072 26.9097 14.6964 27.1743C14.3142 27.3728 13.8659 27.6043 13.7042 27.6888C13.5425 27.7733 13.1052 28.0012 12.7303 28.1959C12.3555 28.387 11.9917 28.5561 11.9218 28.5708C11.841 28.5892 11.7271 28.5781 11.6095 28.5377C11.5066 28.5046 11.3743 28.4275 11.3081 28.3613C11.242 28.2952 11.1648 28.1776 11.1354 28.1041C11.1023 28.0269 11.0766 27.9203 11.0766 27.8652C11.0766 27.8064 11.1097 27.5896 11.1501 27.3764C11.1919 27.1747 11.2435 26.8905 11.2738 26.7236L11.2787 26.6966C11.3081 26.5349 11.4037 26.0057 11.4956 25.5206C11.5874 25.0355 11.6646 24.5982 11.6646 24.5467C11.6646 24.4953 11.6425 24.374 11.6131 24.2711C11.5727 24.1388 11.4772 23.9955 11.2751 23.7566C11.1207 23.5729 10.8451 23.2017 10.665 22.9297C10.4849 22.6578 10.224 22.2021 10.088 21.9191C9.9484 21.6362 9.772 21.2319 9.6985 21.0188C9.625 20.8056 9.54048 20.541 9.5074 20.4308C9.478 20.3205 9.42288 20.1037 9.38613 19.953C9.34571 19.8024 9.28323 19.4459 9.24281 19.1629C9.18401 18.7734 9.16563 18.461 9.16563 17.8767C9.16563 17.4504 9.18401 16.9139 9.20606 16.6823C9.22811 16.4508 9.27956 16.087 9.31998 15.8739C9.36041 15.6607 9.43391 15.33 9.48535 15.1389C9.5368 14.9478 9.63235 14.6391 9.6985 14.459C9.76098 14.2789 9.8896 13.9702 9.9778 13.7791C10.066 13.588 10.213 13.2977 10.3012 13.136C10.3931 12.9743 10.5511 12.7097 10.654 12.548C10.7569 12.3863 10.9811 12.0813 11.1501 11.8682C11.3192 11.655 11.6242 11.3169 11.8263 11.1111C12.0321 10.909 12.3371 10.6297 12.5098 10.4937C12.6826 10.3541 13.028 10.1042 13.2816 9.93514C13.5351 9.76976 13.9982 9.50884 14.3106 9.35817C14.6229 9.20382 15.0786 9.01272 15.3212 8.93187C15.5637 8.85103 15.9202 8.74445 16.1113 8.693C16.3024 8.64523 16.6846 8.56805 16.9565 8.52763Z" fill="white"/>
<path d="M17.5996 13.2608C17.7209 13.2167 17.8936 13.169 17.9855 13.1506C18.0774 13.1359 18.331 13.1285 18.5551 13.1359C18.8454 13.1432 19.0255 13.169 19.1982 13.2278C19.3305 13.2719 19.551 13.3674 19.6944 13.4409C19.8597 13.5291 20.0472 13.6724 20.2272 13.8525C20.3779 14.0032 20.558 14.22 20.6241 14.3303C20.6866 14.4405 20.7932 14.6831 20.8593 14.8631C20.9659 15.1681 20.9769 15.2306 20.9769 15.6532C20.9769 16.0538 20.9622 16.153 20.8777 16.4066C20.8226 16.5683 20.7197 16.8072 20.6425 16.9395C20.5653 17.0681 20.3889 17.2959 20.2456 17.4393C20.1023 17.5826 19.9002 17.7516 19.7973 17.8178C19.6907 17.8803 19.6025 17.9354 19.6025 17.9427C19.6025 17.9464 19.6172 18.0015 19.6356 18.0603C19.6576 18.1191 19.7715 18.5197 19.8965 18.9423C20.0214 19.3649 20.1868 19.9309 20.264 20.1918C20.3411 20.4527 20.4918 20.9599 20.5947 21.3127C20.7417 21.8051 20.7821 21.9888 20.7638 22.1028C20.7527 22.1836 20.7086 22.2939 20.6682 22.3527C20.6278 22.4078 20.5396 22.4813 20.4771 22.518C20.3669 22.5768 20.1941 22.5805 18.4449 22.5805C16.6001 22.5805 16.5302 22.5768 16.409 22.507C16.3391 22.4666 16.2509 22.3931 16.2142 22.3416C16.1664 22.2828 16.1407 22.1873 16.1407 22.066C16.137 21.9337 16.2399 21.5332 16.5155 20.6144C16.7213 19.9162 16.9492 19.1555 17.019 18.9239C17.0888 18.6924 17.177 18.3874 17.2174 18.2441L17.2239 18.2194C17.258 18.09 17.2873 17.9788 17.2873 17.9685C17.2873 17.9574 17.2027 17.8876 17.0962 17.8104C16.9896 17.7369 16.8352 17.612 16.7544 17.5348C16.6736 17.4613 16.5449 17.3253 16.4714 17.2335C16.3979 17.1416 16.2803 16.9615 16.2068 16.8292C16.137 16.6969 16.0415 16.4581 16.001 16.2964C15.9533 16.1016 15.9275 15.8848 15.9275 15.6643C15.9275 15.4768 15.9533 15.2122 15.9863 15.0763C16.0157 14.9366 16.0966 14.7125 16.1664 14.5691C16.2326 14.4258 16.3575 14.22 16.4457 14.1098C16.5302 13.9995 16.6919 13.8268 16.8058 13.7312C16.9198 13.6357 17.0925 13.5071 17.1954 13.4483C17.2946 13.3895 17.4784 13.3049 17.5996 13.2608Z" fill="#4254F4"/>
<defs>
<linearGradient id="paint0_linear_134_1641" x1="18.5" y1="-1.23333" x2="18.5" y2="37" gradientUnits="userSpaceOnUse">
<stop stop-color="#5754F2"/>
<stop offset="0.616424" stop-color="#3E53F4"/>
<stop offset="1" stop-color="#1952F7"/>
</linearGradient>
</defs>
</svg>
